<svg width="181" height="42" viewBox="0 0 181 42" fill="none" xmlns="http://www.w3.org/2000/svg">
<path d="M1.88916 8.8036H9.71101V25.8714H20.1843V31.9128H1.88916V8.8036ZM42.8276 25.8714V31.9128H21.5163V27.1259L32.1222 14.845H21.8478V8.8036H42.2973V13.5905L31.6914 25.8714H42.8276ZM53.7491 32.441C51.8267 32.441 49.9486 32.2319 48.1147 31.8137C46.3028 31.3736 44.8114 30.7903 43.6403 30.064L46.1592 24.3858C47.264 25.024 48.5014 25.5412 49.8713 25.9374C51.2412 26.3115 52.5559 26.4986 53.8154 26.4986C54.898 26.4986 55.6714 26.3996 56.1354 26.2015C56.5994 25.9814 56.8314 25.6623 56.8314 25.2441C56.8314 24.7599 56.5221 24.3968 55.9034 24.1547C55.3068 23.9126 54.3125 23.6485 52.9205 23.3624C51.1307 22.9882 49.6393 22.5921 48.4461 22.1739C47.253 21.7337 46.2145 21.0295 45.3306 20.0611C44.4468 19.0707 44.0049 17.7391 44.0049 16.0665C44.0049 14.6139 44.4137 13.2934 45.2312 12.1049C46.0487 10.9164 47.264 9.98107 48.877 9.2988C50.5121 8.61653 52.4896 8.27539 54.8097 8.27539C56.4005 8.27539 57.9583 8.45146 59.4829 8.8036C61.0296 9.13373 62.3885 9.62893 63.5595 10.2892L61.2063 15.9344C58.9305 14.79 56.7762 14.2177 54.7434 14.2177C52.7327 14.2177 51.7273 14.7019 51.7273 15.6703C51.7273 16.1325 52.0256 16.4846 52.6222 16.7267C53.2188 16.9468 54.202 17.1889 55.572 17.453C57.3396 17.7832 58.8311 18.1683 60.0463 18.6085C61.2616 19.0267 62.3111 19.7199 63.195 20.6883C64.1009 21.6567 64.5538 22.9772 64.5538 24.6499C64.5538 26.1025 64.1451 27.423 63.3275 28.6115C62.51 29.7779 61.2837 30.7133 59.6486 31.4176C58.0356 32.0998 56.0691 32.441 53.7491 32.441ZM71.5955 14.845H64.8011V8.8036H86.2118V14.845H79.4174V31.9128H71.5955V14.845ZM99.0228 32.441C95.4654 32.441 92.6924 31.4836 90.7038 29.5688C88.7152 27.6541 87.7209 24.969 87.7209 21.5136V8.8036H95.5428V21.2826C95.5428 22.9772 95.8411 24.2097 96.4376 24.98C97.0563 25.7503 97.9401 26.1355 99.0891 26.1355C100.238 26.1355 101.111 25.7503 101.707 24.98C102.326 24.2097 102.635 22.9772 102.635 21.2826V8.8036H110.325V21.5136C110.325 24.969 109.33 27.6541 107.342 29.5688C105.353 31.4836 102.58 32.441 99.0228 32.441ZM113.91 8.8036H125.345C127.93 8.8036 130.206 9.27679 132.172 10.2232C134.161 11.1475 135.696 12.4791 136.779 14.2177C137.884 15.9564 138.436 18.0033 138.436 20.3582C138.436 22.7131 137.884 24.7599 136.779 26.4986C135.696 28.2373 134.161 29.5798 132.172 30.5262C130.206 31.4506 127.93 31.9128 125.345 31.9128H113.91V8.8036ZM125.013 25.8384C126.692 25.8384 128.029 25.3652 129.024 24.4188C130.04 23.4504 130.548 22.0969 130.548 20.3582C130.548 18.6195 130.04 17.277 129.024 16.3306C128.029 15.3622 126.692 14.878 125.013 14.878H121.732V25.8384H125.013ZM141.292 8.8036H149.114V31.9128H141.292V8.8036ZM165.043 32.441C162.546 32.441 160.304 31.9238 158.315 30.8894C156.327 29.855 154.769 28.4244 153.642 26.5977C152.515 24.7489 151.952 22.6691 151.952 20.3582C151.952 18.0473 152.515 15.9784 153.642 14.1517C154.769 12.303 156.327 10.8614 158.315 9.82701C160.304 8.7926 162.546 8.27539 165.043 8.27539C167.54 8.27539 169.783 8.7926 171.771 9.82701C173.76 10.8614 175.318 12.303 176.445 14.1517C177.571 15.9784 178.135 18.0473 178.135 20.3582C178.135 22.6691 177.571 24.7489 176.445 26.5977C175.318 28.4244 173.76 29.855 171.771 30.8894C169.783 31.9238 167.54 32.441 165.043 32.441ZM165.043 26.1355C166.015 26.1355 166.888 25.9044 167.662 25.4422C168.457 24.958 169.087 24.2867 169.551 23.4284C170.015 22.5481 170.247 21.5246 170.247 20.3582C170.247 19.1917 170.015 18.1793 169.551 17.321C169.087 16.4406 168.457 15.7694 167.662 15.3072C166.888 14.823 166.015 14.5809 165.043 14.5809C164.071 14.5809 163.187 14.823 162.392 15.3072C161.618 15.7694 161 16.4406 160.536 17.321C160.072 18.1793 159.84 19.1917 159.84 20.3582C159.84 21.5246 160.072 22.5481 160.536 23.4284C161 24.2867 161.618 24.958 162.392 25.4422C163.187 25.9044 164.071 26.1355 165.043 26.1355Z" fill="black"/>
<path d="M3.73057 10.6372V10.2704H3.3623V10.6372H3.73057ZM11.5524 10.6372H11.9207V10.2704H11.5524V10.6372ZM11.5524 27.705H11.1842V28.0718H11.5524V27.705ZM22.0257 27.705H22.394V27.3382H22.0257V27.705ZM22.0257 33.7464V34.1132H22.394V33.7464H22.0257ZM3.73057 33.7464H3.3623V34.1132H3.73057V33.7464ZM3.73057 11.004H11.5524V10.2704H3.73057V11.004ZM11.1842 10.6372V27.705H11.9207V10.6372H11.1842ZM11.5524 28.0718H22.0257V27.3382H11.5524V28.0718ZM21.6575 27.705V33.7464H22.394V27.705H21.6575ZM22.0257 33.3796H3.73057V34.1132H22.0257V33.3796ZM4.09883 33.7464V10.6372H3.3623V33.7464H4.09883ZM44.669 27.705H45.0372V27.3382H44.669V27.705ZM44.669 33.7464V34.1132H45.0372V33.7464H44.669ZM23.3577 33.7464H22.9895V34.1132H23.3577V33.7464ZM23.3577 28.9595L23.0786 28.7203L22.9895 28.8234V28.9595H23.3577ZM33.9636 16.6786L34.2428 16.9178L34.7661 16.3118H33.9636V16.6786ZM23.6892 16.6786H23.3209V17.0454H23.6892V16.6786ZM23.6892 10.6372V10.2704H23.3209V10.6372H23.6892ZM44.1387 10.6372H44.5069V10.2704H44.1387V10.6372ZM44.1387 15.4241L44.4178 15.6633L44.5069 15.5602V15.4241H44.1387ZM33.5328 27.705L33.2536 27.4658L32.7302 28.0718H33.5328V27.705ZM44.3007 27.705V33.7464H45.0372V27.705H44.3007ZM44.669 33.3796H23.3577V34.1132H44.669V33.3796ZM23.726 33.7464V28.9595H22.9895V33.7464H23.726ZM23.6369 29.1986L34.2428 16.9178L33.6845 16.4394L23.0786 28.7203L23.6369 29.1986ZM33.9636 16.3118H23.6892V17.0454H33.9636V16.3118ZM24.0574 16.6786V10.6372H23.3209V16.6786H24.0574ZM23.6892 11.004H44.1387V10.2704H23.6892V11.004ZM43.7704 10.6372V15.4241H44.5069V10.6372H43.7704ZM43.8595 15.1849L33.2536 27.4658L33.8119 27.9441L44.4178 15.6633L43.8595 15.1849ZM33.5328 28.0718H44.669V27.3382H33.5328V28.0718ZM49.9561 33.6473L49.8688 34.0037L49.8714 34.0043L49.874 34.005L49.9561 33.6473ZM45.4817 31.8976L45.145 31.7495L45.0157 32.0407L45.2871 32.2091L45.4817 31.8976ZM48.0006 26.2194L48.1853 25.9021L47.8299 25.6967L47.6639 26.0712L48.0006 26.2194ZM51.7127 27.771L51.6099 28.1233L51.6127 28.1241L51.6153 28.1248L51.7127 27.771ZM57.9768 28.0351L58.1219 28.3722L58.1285 28.3695L58.1352 28.3663L57.9768 28.0351ZM57.7448 25.9883L57.6058 26.328L57.608 26.3289L57.6102 26.3298L57.7448 25.9883ZM54.7619 25.196L54.6862 25.5549L54.6875 25.5553L54.7619 25.196ZM50.2875 24.0075L50.1596 24.3514L50.1625 24.3525L50.1653 24.3536L50.2875 24.0075ZM47.172 21.8947L46.8968 22.1384L46.8982 22.1399L46.8995 22.1414L47.172 21.8947ZM50.7184 11.1324L50.576 10.7941L50.5744 10.7948L50.7184 11.1324ZM61.3243 10.6372L61.2411 10.9945L61.2442 10.9952L61.2471 10.9959L61.3243 10.6372ZM65.4009 12.1228L65.741 12.2635L65.866 11.9635L65.5823 11.8036L65.4009 12.1228ZM63.0477 17.768L62.8818 18.0955L63.2357 18.2735L63.3878 17.9087L63.0477 17.768ZM54.4636 18.5604L54.3246 18.9L54.3301 18.9022L54.3356 18.9042L54.4636 18.5604ZM57.4134 19.2866L57.3434 19.6469L57.3454 19.6472L57.4134 19.2866ZM61.8877 20.4421L61.7618 20.7869L61.7647 20.7878L61.7675 20.7887L61.8877 20.4421ZM65.0364 22.5219L64.7638 22.7686L64.7653 22.7703L64.767 22.7719L65.0364 22.5219ZM65.1689 30.4451L65.4709 30.6551L65.4718 30.6538L65.4727 30.6523L65.1689 30.4451ZM61.49 33.2512L61.634 33.5888L61.6362 33.5879L61.49 33.2512ZM55.5905 33.9078C53.6952 33.9078 51.8447 33.7016 50.0382 33.2897L49.874 34.005C51.7353 34.4294 53.6411 34.6414 55.5905 34.6414V33.9078ZM50.0434 33.291C48.2569 32.857 46.8049 32.2861 45.6764 31.5862L45.2871 32.2091C46.5007 32.9618 48.0314 33.5573 49.8688 34.0037L50.0434 33.291ZM45.8185 32.0458L48.3374 26.3676L47.6639 26.0712L45.145 31.7495L45.8185 32.0458ZM47.8159 26.5367C48.9493 27.1914 50.2146 27.7198 51.6099 28.1233L51.8154 27.4187C50.4707 27.0299 49.2616 26.5238 48.1853 25.9021L47.8159 26.5367ZM51.6153 28.1248C53.013 28.5065 54.3605 28.699 55.6568 28.699V27.9654C54.4341 27.9654 53.1522 27.7838 51.8101 27.4172L51.6153 28.1248ZM55.6568 28.699C56.7452 28.699 57.5839 28.6018 58.1219 28.3722L57.8317 27.698C57.4417 27.8645 56.7337 27.9654 55.6568 27.9654V28.699ZM58.1352 28.3663C58.4066 28.2376 58.6356 28.0678 58.7971 27.8458C58.9615 27.6197 59.0411 27.3591 59.0411 27.0777H58.3046C58.3046 27.2146 58.2681 27.3226 58.2005 27.4156C58.13 27.5128 58.011 27.6125 57.8184 27.7039L58.1352 28.3663ZM59.0411 27.0777C59.0411 26.7504 58.9337 26.454 58.7216 26.2049C58.5152 25.9626 58.2245 25.782 57.8794 25.6468L57.6102 26.3298C57.8838 26.4367 58.0571 26.5587 58.16 26.6796C58.2572 26.7936 58.3046 26.9209 58.3046 27.0777H59.0411ZM57.8838 25.6486C57.2535 25.3928 56.2305 25.1234 54.8363 24.8367L54.6875 25.5553C56.0773 25.8408 57.0429 26.0996 57.6058 26.328L57.8838 25.6486ZM54.8376 24.8371C53.0572 24.4647 51.5827 24.0726 50.4098 23.6614L50.1653 24.3536C51.3787 24.7787 52.8871 25.1789 54.6862 25.5549L54.8376 24.8371ZM50.4155 23.6634C49.2794 23.2444 48.2901 22.5744 47.4446 21.648L46.8995 22.1414C47.8217 23.1517 48.9093 23.8903 50.1596 24.3514L50.4155 23.6634ZM47.4473 21.6509C46.6379 20.744 46.2146 19.5073 46.2146 17.9001H45.478C45.478 19.6382 45.9386 21.0646 46.8968 22.1384L47.4473 21.6509ZM46.2146 17.9001C46.2146 16.5209 46.6012 15.2727 47.3764 14.1459L46.7688 13.7312C45.9089 14.9812 45.478 16.3742 45.478 17.9001H46.2146ZM47.3764 14.1459C48.1465 13.0263 49.3002 12.1308 50.8624 11.47L50.5744 10.7948C48.9106 11.4986 47.6338 12.4738 46.7688 13.7312L47.3764 14.1459ZM50.8607 11.4707C52.4391 10.8121 54.3655 10.4758 56.6511 10.4758V9.74219C54.2966 9.74219 52.2678 10.0882 50.576 10.7941L50.8607 11.4707ZM56.6511 10.4758C58.2143 10.4758 59.7443 10.6488 61.2411 10.9945L61.4075 10.2799C59.8551 9.92134 58.2696 9.74219 56.6511 9.74219V10.4758ZM61.2471 10.9959C62.7634 11.3195 64.0861 11.803 65.2196 12.442L65.5823 11.8036C64.3737 11.1221 62.9785 10.6151 61.4014 10.2785L61.2471 10.9959ZM65.0608 11.9821L62.7077 17.6274L63.3878 17.9087L65.741 12.2635L65.0608 11.9821ZM63.2136 17.4406C60.8991 16.2767 58.6881 15.6845 56.5848 15.6845V16.4182C58.5471 16.4182 60.6447 16.9705 62.8818 18.0955L63.2136 17.4406ZM56.5848 15.6845C55.5616 15.6845 54.7405 15.8059 54.1624 16.0843C53.8683 16.2259 53.6241 16.4144 53.454 16.6602C53.2818 16.909 53.2005 17.1951 53.2005 17.5039H53.937C53.937 17.3286 53.9812 17.191 54.0603 17.0766C54.1415 16.9593 54.2743 16.8452 54.4831 16.7447C54.9103 16.5389 55.5973 16.4182 56.5848 16.4182V15.6845ZM53.2005 17.5039C53.2005 17.8213 53.3056 18.1088 53.5109 18.3513C53.7107 18.5869 53.9917 18.7649 54.3246 18.9L54.6026 18.2206C54.3389 18.1137 54.1725 17.9946 54.074 17.8781C53.981 17.7685 53.937 17.6487 53.937 17.5039H53.2005ZM54.3356 18.9042C54.9626 19.1357 55.9713 19.3822 57.3434 19.6469L57.4833 18.9264C56.1156 18.6629 55.1578 18.4252 54.5916 18.2164L54.3356 18.9042ZM57.3454 19.6472C59.1004 19.975 60.5712 20.3555 61.7618 20.7869L62.0135 20.0973C60.7737 19.6483 59.2617 19.2586 57.4813 18.9261L57.3454 19.6472ZM61.7675 20.7887C62.9231 21.1864 63.9207 21.8448 64.7638 22.7686L65.3089 22.2752C64.3843 21.2623 63.2829 20.5342 62.008 20.0955L61.7675 20.7887ZM64.767 22.7719C65.5937 23.6559 66.027 24.8781 66.027 26.4835H66.7635C66.7635 24.7435 66.2906 23.3247 65.3057 22.2719L64.767 22.7719ZM66.027 26.4835C66.027 27.8627 65.6403 29.1108 64.8651 30.2378L65.4727 30.6523C66.3326 29.4024 66.7635 28.0094 66.7635 26.4835H66.027ZM64.867 30.2351C64.0971 31.3335 62.9316 32.2305 61.3438 32.9145L61.6362 33.5879C63.3186 32.8633 64.6057 31.8896 65.4709 30.6551L64.867 30.2351ZM61.346 32.9135C59.7908 33.5714 57.8763 33.9078 55.5905 33.9078V34.6414C57.9448 34.6414 59.9632 34.2955 61.634 33.5888L61.346 32.9135ZM73.4369 16.6786H73.8052V16.3118H73.4369V16.6786ZM66.6425 16.6786H66.2743V17.0454H66.6425V16.6786ZM66.6425 10.6372V10.2704H66.2743V10.6372H66.6425ZM88.0532 10.6372H88.4214V10.2704H88.0532V10.6372ZM88.0532 16.6786V17.0454H88.4214V16.6786H88.0532ZM81.2588 16.6786V16.3118H80.8905V16.6786H81.2588ZM81.2588 33.7464V34.1132H81.627V33.7464H81.2588ZM73.4369 33.7464H73.0687V34.1132H73.4369V33.7464ZM73.4369 16.3118H66.6425V17.0454H73.4369V16.3118ZM67.0108 16.6786V10.6372H66.2743V16.6786H67.0108ZM66.6425 11.004H88.0532V10.2704H66.6425V11.004ZM87.6849 10.6372V16.6786H88.4214V10.6372H87.6849ZM88.0532 16.3118H81.2588V17.0454H88.0532V16.3118ZM80.8905 16.6786V33.7464H81.627V16.6786H80.8905ZM81.2588 33.3796H73.4369V34.1132H81.2588V33.3796ZM73.8052 33.7464V16.6786H73.0687V33.7464H73.8052ZM89.5623 10.6372V10.2704H89.1941V10.6372H89.5623ZM97.3842 10.6372H97.7524V10.2704H97.3842V10.6372ZM98.279 26.8136L97.9874 27.0378L97.9894 27.0403L97.9914 27.0427L98.279 26.8136ZM103.549 26.8136L103.261 26.5846L103.259 26.5869L103.257 26.5895L103.549 26.8136ZM104.477 10.6372V10.2704H104.109V10.6372H104.477ZM112.166 10.6372H112.534V10.2704H112.166V10.6372ZM100.864 33.9078C97.3739 33.9078 94.703 32.97 92.8012 31.1387L92.2893 31.6662C94.3644 33.6644 97.2396 34.6414 100.864 34.6414V33.9078ZM92.8012 31.1387C90.9015 29.3098 89.9306 26.73 89.9306 23.3473H89.1941C89.1941 26.8753 90.2116 29.6656 92.2893 31.6662L92.8012 31.1387ZM89.9306 23.3473V10.6372H89.1941V23.3473H89.9306ZM89.5623 11.004H97.3842V10.2704H89.5623V11.004ZM97.0159 10.6372V23.1162H97.7524V10.6372H97.0159ZM97.0159 23.1162C97.0159 24.838 97.3159 26.1706 97.9874 27.0378L98.5705 26.5895C98.0489 25.916 97.7524 24.7837 97.7524 23.1162H97.0159ZM97.9914 27.0427C98.6917 27.9146 99.6897 28.3359 100.931 28.3359V27.6023C99.8732 27.6023 99.1036 27.2533 98.5665 26.5846L97.9914 27.0427ZM100.931 28.3359C102.171 28.3359 103.161 27.9144 103.84 27.0378L103.257 26.5895C102.743 27.2534 101.988 27.6023 100.931 27.6023V28.3359ZM103.836 27.0427C104.533 26.175 104.845 24.84 104.845 23.1162H104.109C104.109 24.7817 103.802 25.9116 103.261 26.5846L103.836 27.0427ZM104.845 23.1162V10.6372H104.109V23.1162H104.845ZM104.477 11.004H112.166V10.2704H104.477V11.004ZM111.798 10.6372V23.3473H112.534V10.6372H111.798ZM111.798 23.3473C111.798 26.73 110.827 29.3098 108.927 31.1387L109.439 31.6662C111.517 29.6656 112.534 26.8753 112.534 23.3473H111.798ZM108.927 31.1387C107.025 32.97 104.354 33.9078 100.864 33.9078V34.6414C104.489 34.6414 107.364 33.6644 109.439 31.6662L108.927 31.1387ZM115.752 10.6372V10.2704H115.383V10.6372H115.752ZM134.014 12.0568L133.853 12.3871L133.856 12.3881L133.858 12.3892L134.014 12.0568ZM138.62 16.0514L138.307 16.2447L138.308 16.2461L138.309 16.2475L138.62 16.0514ZM138.62 28.3322L138.309 28.136L138.308 28.1375L138.307 28.1389L138.62 28.3322ZM134.014 32.3598L134.171 32.6916L134.172 32.6909L134.014 32.3598ZM115.752 33.7464H115.383V34.1132H115.752V33.7464ZM130.865 18.1642L130.608 18.4265L130.61 18.4294L130.613 18.4322L130.865 18.1642ZM123.573 16.7116V16.3448H123.205V16.7116H123.573ZM123.573 27.672H123.205V28.0388H123.573V27.672ZM115.752 11.004H127.186V10.2704H115.752V11.004ZM127.186 11.004C129.726 11.004 131.945 11.4688 133.853 12.3871L134.174 11.7265C132.149 10.752 129.816 10.2704 127.186 10.2704V11.004ZM133.858 12.3892C135.786 13.2856 137.265 14.5708 138.307 16.2447L138.934 15.858C137.81 14.0545 136.218 12.6767 134.169 11.7244L133.858 12.3892ZM138.309 16.2475C139.372 17.9194 139.909 19.8961 139.909 22.1918H140.646C140.646 19.7776 140.079 17.6607 138.932 15.8552L138.309 16.2475ZM139.909 22.1918C139.909 24.4875 139.372 26.4642 138.309 28.136L138.932 28.5285C140.079 26.7228 140.646 24.606 140.646 22.1918H139.909ZM138.307 28.1389C137.265 29.8136 135.785 31.1105 133.855 32.0288L134.172 32.6909C136.22 31.7164 137.811 30.3282 138.934 28.5255L138.307 28.1389ZM133.856 32.028C131.947 32.9255 129.727 33.3796 127.186 33.3796V34.1132C129.815 34.1132 132.147 33.6429 134.171 32.6916L133.856 32.028ZM127.186 33.3796H115.752V34.1132H127.186V33.3796ZM116.12 33.7464V10.6372H115.383V33.7464H116.12ZM126.855 28.0388C128.606 28.0388 130.042 27.543 131.119 26.5176L130.61 25.9872C129.699 26.8545 128.461 27.3052 126.855 27.3052V28.0388ZM131.119 26.5176C132.225 25.4641 132.758 24.0049 132.758 22.1918H132.021C132.021 23.856 131.537 25.1041 130.61 25.9874L131.119 26.5176ZM132.758 22.1918C132.758 20.3792 132.225 18.9288 131.116 17.8962L130.613 18.4322C131.537 19.2923 132.021 20.527 132.021 22.1918H132.758ZM131.122 17.9019C130.045 16.853 128.609 16.3448 126.855 16.3448V17.0784C128.459 17.0784 129.696 17.5386 130.608 18.4265L131.122 17.9019ZM126.855 16.3448H123.573V17.0784H126.855V16.3448ZM123.205 16.7116V27.672H123.942V16.7116H123.205ZM123.573 28.0388H126.855V27.3052H123.573V28.0388ZM143.134 10.6372V10.2704H142.765V10.6372H143.134ZM150.956 10.6372H151.324V10.2704H150.956V10.6372ZM150.956 33.7464V34.1132H151.324V33.7464H150.956ZM143.134 33.7464H142.765V34.1132H143.134V33.7464ZM143.134 11.004H150.956V10.2704H143.134V11.004ZM150.587 10.6372V33.7464H151.324V10.6372H150.587ZM150.956 33.3796H143.134V34.1132H150.956V33.3796ZM143.502 33.7464V10.6372H142.765V33.7464H143.502ZM155.483 28.4313L155.168 28.6216L155.17 28.6233L155.483 28.4313ZM155.483 15.9853L155.797 16.1774L155.798 16.1757L155.483 15.9853ZM178.286 15.9853L177.971 16.1757L177.972 16.1774L178.286 15.9853ZM178.286 28.4313L178.6 28.6233L178.601 28.6216L178.286 28.4313ZM169.503 27.2758L169.692 27.5904L169.694 27.5896L169.695 27.5889L169.503 27.2758ZM171.392 25.262L171.716 25.4359L171.717 25.4342L171.718 25.4326L171.392 25.262ZM171.392 19.1546L171.066 19.3252L171.067 19.3268L171.068 19.3285L171.392 19.1546ZM169.503 17.1408L169.307 17.4514L169.312 17.4546L169.317 17.4576L169.503 17.1408ZM164.233 17.1408L164.423 17.4553L164.424 17.4546L164.425 17.4538L164.233 17.1408ZM162.377 19.1546L162.701 19.3285L162.702 19.3268L162.703 19.3252L162.377 19.1546ZM162.377 25.262L162.051 25.4326L162.052 25.4342L162.053 25.4359L162.377 25.262ZM164.233 27.2758L164.037 27.5863L164.042 27.5896L164.048 27.5927L164.233 27.2758ZM166.885 33.9078C164.44 33.9078 162.257 33.4019 160.327 32.3978L159.986 33.0482C162.033 34.1128 164.335 34.6414 166.885 34.6414V33.9078ZM160.327 32.3978C158.395 31.3927 156.888 30.0071 155.797 28.2392L155.17 28.6233C156.333 30.5089 157.941 31.9844 159.986 33.0482L160.327 32.3978ZM155.798 28.2409C154.709 26.4534 154.161 24.4404 154.161 22.1918H153.425C153.425 24.5651 154.004 26.7117 155.168 28.6216L155.798 28.2409ZM154.161 22.1918C154.161 19.9432 154.709 17.9419 155.797 16.1774L155.17 15.7933C154.004 17.6823 153.425 19.8185 153.425 22.1918H154.161ZM155.798 16.1757C156.889 14.3861 158.396 12.9903 160.327 11.9858L159.986 11.3355C157.94 12.3998 156.331 13.8871 155.168 15.795L155.798 16.1757ZM160.327 11.9858C162.257 10.9817 164.44 10.4758 166.885 10.4758V9.74219C164.335 9.74219 162.033 10.2707 159.986 11.3355L160.327 11.9858ZM166.885 10.4758C169.329 10.4758 171.512 10.9817 173.442 11.9858L173.783 11.3355C171.736 10.2707 169.434 9.74219 166.885 9.74219V10.4758ZM173.442 11.9858C175.373 12.9903 176.88 14.3861 177.971 16.1757L178.601 15.795C177.438 13.8871 175.829 12.3998 173.783 11.3355L173.442 11.9858ZM177.972 16.1774C179.061 17.9418 179.608 19.9432 179.608 22.1918H180.345C180.345 19.8185 179.765 17.6823 178.6 15.7933L177.972 16.1774ZM179.608 22.1918C179.608 24.4404 179.061 26.4534 177.971 28.2409L178.601 28.6216C179.765 26.7117 180.345 24.5651 180.345 22.1918H179.608ZM177.972 28.2392C176.882 30.0071 175.375 31.3927 173.442 32.3978L173.783 33.0482C175.828 31.9844 177.436 30.5089 178.6 28.6233L177.972 28.2392ZM173.442 32.3978C171.512 33.4019 169.329 33.9078 166.885 33.9078V34.6414C169.434 34.6414 171.736 34.1128 173.783 33.0482L173.442 32.3978ZM166.885 28.3359C167.918 28.3359 168.857 28.0894 169.692 27.5904L169.314 26.9613C168.602 27.3866 167.795 27.6023 166.885 27.6023V28.3359ZM169.695 27.5889C170.549 27.0689 171.223 26.3485 171.716 25.4359L171.068 25.0881C170.633 25.8922 170.048 26.5143 169.311 26.9627L169.695 27.5889ZM171.718 25.4326C172.214 24.4912 172.456 23.4074 172.456 22.1918H171.72C171.72 23.3091 171.498 24.2722 171.066 25.0914L171.718 25.4326ZM172.456 22.1918C172.456 20.9765 172.214 19.902 171.716 18.9807L171.068 19.3285C171.498 20.1239 171.72 21.0741 171.72 22.1918H172.456ZM171.718 18.984C171.225 18.0481 170.549 17.3237 169.688 16.8239L169.317 17.4576C170.048 17.8822 170.631 18.5004 171.066 19.3252L171.718 18.984ZM169.699 16.8302C168.863 16.3069 167.922 16.0477 166.885 16.0477V16.7813C167.792 16.7813 168.596 17.0063 169.307 17.4514L169.699 16.8302ZM166.885 16.0477C165.848 16.0477 164.897 16.3069 164.041 16.8278L164.425 17.4538C165.16 17.0063 165.977 16.7813 166.885 16.7813V16.0477ZM164.044 16.8262C163.206 17.3267 162.543 18.0507 162.051 18.984L162.703 19.3252C163.139 18.4978 163.713 17.8793 164.423 17.4553L164.044 16.8262ZM162.053 18.9807C161.555 19.902 161.313 20.9765 161.313 22.1918H162.049C162.049 21.0741 162.271 20.1239 162.701 19.3285L162.053 18.9807ZM161.313 22.1918C161.313 23.4074 161.555 24.4912 162.051 25.4326L162.703 25.0914C162.271 24.2722 162.049 23.3091 162.049 22.1918H161.313ZM162.053 25.4359C162.545 26.3459 163.206 27.066 164.037 27.5863L164.429 26.9653C163.713 26.5172 163.137 25.8948 162.701 25.0881L162.053 25.4359ZM164.048 27.5927C164.903 28.0894 165.851 28.3359 166.885 28.3359V27.6023C165.974 27.6023 165.155 27.3866 164.419 26.9589L164.048 27.5927Z" fill="black"/>
</svg>
